<svg xmlns="http://www.w3.org/2000/svg" viewBox="0 0 47.05 45.25"><defs><style>.cls-1{fill:#d65e6a;}.cls-2{fill:#f9faf9;}.cls-3{fill:#f9f8f5;}.cls-4{fill:#f9d2d8;}.cls-5{fill:#f9e9e6;}.cls-6{fill:#f7e8df;}.cls-7{fill:#c87076;}</style></defs><title>failure</title><g id="Layer_2" data-name="Layer 2"><g id="Layer_1-2" data-name="Layer 1"><g id="Layer_2-2" data-name="Layer 2"><g id="Layer_1-2-2" data-name="Layer 1-2"><path class="cls-1" d="M23.29,45.23H12.82c-3.17,0-6.57.5-7.4-3.9,0-.15-.14-.38-.25-.4-8.52-1.78-4-7.68-3.77-12.13A109,109,0,0,1,2.45,17.4,20.5,20.5,0,0,1,23.47,0C33.6.31,43.69,9,44.6,18.59c.52,5.63.66,11.28,2.27,16.75.23.76.24,2.29,0,2.36-4.53,1.32-5.71,7.55-11.12,7.52H23.29Z"/><path class="cls-2" d="M4.6,16.91C5.76,9.19,11.69,3.57,20,2.3S37.1,5.77,40.93,13.49c2,3.92,1.56,8.06,2,12.15.36,3.12,1.15,6.19,1.81,9.27.29,1.39.62,2.74-1.41,2.93s-1.93-1.39-2-2.68V24.7c0-1.24.26-3.19-1.71-2.88-5.29.84-7.32-2.79-9.57-6.35-.74-1.17-1.47-2.79-3.39-1-5.88,5.42-13.32,6.24-20.82,6.83C2.8,20.64,4.69,18.48,4.6,16.91Z"/><path class="cls-3" d="M12.45,22.92c-2,4.15-3,7.94,1.47,10.18a5.38,5.38,0,0,0,7.36-1.88,4.9,4.9,0,0,0,.32-.65c2.25-4.4-.65-6.73-4.23-8.76,2.11-.91,4.3-1.35,5.81-2.6,4.31-3.57,6.88-2.1,8.65,2.52a27.84,27.84,0,0,0-3.06,1.09c-2.93,1.45-4.1,3.78-3,7,1,2.87,3.12,4.44,6.09,4S36.65,31.34,37,28c.13-1.2-2.47-3.55.8-3.7,2.71-.12,1.63,2.4,1.69,3.82.17,3.65,0,7.32.15,11,.14,2.94-.89,4.28-4,4.24q-12.21-.18-24.44,0c-2.88,0-3.85-1.3-3.85-3.89,0-4.65-.11-9.3,0-13.94C7.39,21.57,10.19,23.52,12.45,22.92Z"/><path class="cls-4" d="M4.6,16.91c.37,1.48-.28,3.27,1.32,4.37-.13,4.62-.25,9.23-.41,13.84,0,1.42.25,3.35-2.12,2.93-1.82-.31-1.4-1.73-1.2-3.13C3.09,28.93,3.83,22.92,4.6,16.91Z"/><path class="cls-5" d="M16.6,32c-1.79-.26-3.31-.93-3.75-2.8-.62-2.66,1.58-1.09,2.44-1.55a2.35,2.35,0,0,0,1-1c.41-.83-1.77-3.37,1.44-2.28a3.48,3.48,0,0,1,2.6,4.17.24.24,0,0,1,0,.08A3.9,3.9,0,0,1,16.6,32Z"/><path class="cls-6" d="M27.08,27.82c1.36-.7,4.91,1.18,3.6-3-.28-.86,1.49-.59,2.3-.15a3.61,3.61,0,0,1,1.78,4.21,3.39,3.39,0,0,1-3.41,3C28.81,32,27.6,30.36,27.08,27.82Z"/><path class="cls-7" d="M31,39.61C26,37.4,22.07,38.05,18.38,42.35,20.73,35.48,26.16,34.32,31,39.61Z"/></g></g></g></g></svg>