<svg xmlns="http://www.w3.org/2000/svg" viewBox="0 0 47.25 45.14"><defs><style>.cls-1{fill:#72b970;}.cls-2{fill:#f8faf7;}.cls-3{fill:#f8fbf8;}.cls-4{fill:#d9f5d1;}.cls-5{fill:#dff8d7;}.cls-6{fill:#ecf6ed;}.cls-7{fill:#e7f5dd;}.cls-8{fill:#def9d9;}.cls-9{fill:#eaf9e1;}.cls-10{fill:none;stroke:#73ba71;stroke-miterlimit:10;stroke-width:1.5px;}.cls-11{fill:#73ba71;}</style></defs><title>success</title><g id="Layer_2" data-name="Layer 2"><g id="Layer_1-2" data-name="Layer 1"><g id="Layer_2-2" data-name="Layer 2"><g id="Layer_1-2-2" data-name="Layer 1-2"><path class="cls-1" d="M23.34,45.11h-9c-3.47,0-7.22.64-8.37-4.18-.13-.55-1.25-1.07-2-1.22C.8,39.05.56,37.13,1.35,34.48,2.7,30,2.1,25.21,2.85,20.65,3.4,17.37-1.6,15.86.54,12.59c1.64-2.5,5.83-1.52,7.22-4.69.06-.15.25-.24.31-.38,5.16-11.3,14.84-7,22.38-5.21C39.33,4.39,44.1,11.87,45.1,21.13c.5,4.79.58,9.61,2,14.26a4.64,4.64,0,0,1,0,2.34c-4.78.94-5.89,7.45-11.28,7.38C31.66,45.06,27.5,45.1,23.34,45.11Z"/><path class="cls-2" d="M19.1,21.79A71.41,71.41,0,0,0,26.36,18c1.73-1.17,2.63-1.31,3.86.64s.66,2.68-1.31,3.56c-3,1.34-4,3.89-3,7a4.91,4.91,0,0,0,5.76,3.66c3.32-.48,4.73-2.8,5.11-5.9.13-1.08-1.27-2.81,1.29-2.78,2.1,0,1.77,1.52,1.78,2.82,0,3.83,0,7.66.11,11.49.14,3.51-1.54,4.71-4.86,4.66-7.49-.13-15-.14-22.48,0-3.22.07-4.51-1.07-4.39-4.34.18-4.49,0-9,0-13.49,0-1.38.41-2.22,2-2.12,1.17.08,1.83.25,1.36,1.73-1.21,3.86.13,6.52,4,7.75a4.89,4.89,0,0,0,6-2.48C23.34,26.93,22.47,23.84,19.1,21.79Z"/><path class="cls-3" d="M19.35,3.73C33.1,0,42.79,11.91,43.29,21.57c.21,4.3,1,8.58,1.53,12.85.19,1.38.54,3-1.21,3.26-2.2.38-1.56-1.66-1.72-2.78a32.17,32.17,0,0,1-.26-5c0-3.94,1.4-8.29-5.38-8.26-2.35,0-4.33-3-5.5-5.4-1.29-2.66-2.45-2.48-4.37-.6-3.64,3.59-8.58,4.2-13.23,5.37-2.52.62-3.69-.35-2.88-3.11a9.31,9.31,0,0,1,6.16-6.68C21,9.87,23.27,8.2,19.35,3.73Z"/><path class="cls-4" d="M35,27.55c-.37,2.28-1.67,3.67-4,3.52a3.59,3.59,0,0,1-3.66-3.51,2.48,2.48,0,0,1,0-.38c0-2.71,1.94-3.82,4.28-3.8C34.18,23.41,34.77,25.43,35,27.55Z"/><path class="cls-5" d="M20.44,27.53a3.48,3.48,0,0,1-3.39,3.55H17c-2.62.2-3.55-1.46-3.7-3.66s1-3.91,3.41-4S20.37,24.62,20.44,27.53Z"/><path class="cls-6" d="M6.23,21.32V36.07c0,1-.19,2.07-1.63,1.83-.85-.14-2-.72-1.71-1.47C4.58,31.5,4.25,26.24,4.68,21.11Z"/><path class="cls-7" d="M4.77,12.52a10.55,10.55,0,0,1,3.79,4.81,1.27,1.27,0,0,1-.79,1.61,1.21,1.21,0,0,1-.5.07,6.47,6.47,0,0,1-5-4.28C1.64,13.09,3.4,13.1,4.77,12.52Z"/><path class="cls-8" d="M14.4,2.28C16.4,3.37,18.27,4.71,19,7c.32,1.09-1.06,2.15-1.72,1.76a16.92,16.92,0,0,1-4.49-3.94C12.35,4.33,12.89,2.62,14.4,2.28Z"/><path class="cls-9" d="M12.69,10.82c-.36,1-1.06,2-2,1.91a2,2,0,0,1-2-2c0-.11,0-.21,0-.32A2,2,0,0,1,10.9,8.75,2.13,2.13,0,0,1,12.69,10.82Z"/><path class="cls-10" d="M30.43,36.45a7.94,7.94,0,0,1-7.33,4.12,7.47,7.47,0,0,1-4.51-2.14"/><circle class="cls-11" cx="16.88" cy="27.27" r="1.5"/><circle class="cls-11" cx="31.2" cy="27.27" r="1.5"/></g></g></g></g></svg>