<svg xmlns="http://www.w3.org/2000/svg" viewBox="0 0 126.469 126.083">
  <defs>
    <style>
      .cls-1 {
        fill: #3cbfdd;
      }

      .cls-2 {
        fill: #cff3f6;
      }

      .cls-3 {
        fill: #e6f7f8;
      }

      .cls-4 {
        fill: #e8f7f8;
      }

      .cls-5 {
        fill: #c8edf2;
      }

      .cls-6 {
        fill: #ecf8f9;
      }

      .cls-7 {
        fill: #e8f8f8;
      }
    </style>
  </defs>
  <g id="zehitomo-logo" transform="translate(0.001 0.001)">
    <g id="Layer_1" data-name="Layer 1" transform="translate(-0.001 -0.001)">
      <path id="Path_1" data-name="Path 1" class="cls-1" d="M63.383,126.08A62.938,62.938,0,0,1,0,63.624C-.178,33.723,21.979-.2,63.688,0c37.964.19,62.329,29.761,62.773,63.269C126.969,97.766,98.249,125.979,63.383,126.08Z" transform="translate(0.001 0.001)"/>
      <path id="Path_2" data-name="Path 2" class="cls-2" d="M32.582,34.93l33.012-7.77c3.873,1.93,5.079,4.723,2.768,8.608A367.4,367.4,0,0,1,36.353,67.993a5.46,5.46,0,0,1-6.983-.635c13.967-8.888,23.223-22.334,34.739-34.142-11.084,1.7-22.194,2.26-31.4,9.193C30.449,39.933,30.487,37.444,32.582,34.93Z" transform="translate(7.922 7.326)"/>
      <path id="Path_3" data-name="Path 3" class="cls-3" d="M34.947,33.895l.127,7.478c-2.2,4.584-5.663,6.183-10.158,3.669-3.022-1.7-5.193-4.393-3.961-8.291C21.983,33.247,24.281,31,28.166,31,30.858,31,32.928,32.371,34.947,33.895Z" transform="translate(5.558 8.361)"/>
      <path id="Path_4" data-name="Path 4" class="cls-4" d="M60.708,37.218c.089-3.187-1.346-5.891-2.768-8.608L60.9,26.07a22.915,22.915,0,0,1,2.019-2.743c7.478-2.666,10.7-1.993,11.5,2.92,1.041,6.348-2.946,8-8.38,7.72-.978.533-1.955,1.067-2.933,1.625Z" transform="translate(15.627 5.876)"/>
      <path id="Path_5" data-name="Path 5" class="cls-5" d="M75.574,76.49c-12.481-4.2-25.813-5.295-38.014-10.5.254-1.625,1.841-1.765,2.844-2.539l35.818,7.618C77.555,73.036,77.479,74.89,75.574,76.49Z" transform="translate(10.131 17.113)"/>
      <path id="Path_6" data-name="Path 6" class="cls-6" d="M67.5,75.5l.635-5.422,1.041-.7c4.507-3.25,8.748-3.225,11.719,1.79,2.336,3.923.686,7.618-3,9.573C72.477,83.609,69.3,80.588,67.5,75.5Z" transform="translate(18.205 18.106)"/>
      <path id="Path_7" data-name="Path 7" class="cls-7" d="M43.531,64.684l-2.844,2.539c-2.984-.343-5.7.673-8.532,1.409a4.761,4.761,0,0,1-5.828-3.5c-1.117-3.365.406-5.612,3.961-6.348l6.983.635C37.36,63.618,40.852,63.656,43.531,64.684Z" transform="translate(7.004 15.853)"/>
      <path id="Path_8" data-name="Path 8" class="cls-2" d="M62.289,23,60.27,25.743A2.882,2.882,0,0,1,62.289,23Z" transform="translate(16.255 6.204)"/>
      <path id="Path_9" data-name="Path 9" class="cls-2" d="M62,32.968a3.009,3.009,0,0,1,2.933-1.625Z" transform="translate(16.722 8.451)"/>
    </g>
  </g>
</svg>
